<svg width="1376" height="1018" viewBox="0 0 1376 1018" fill="none" xmlns="http://www.w3.org/2000/svg">
<rect width="1376" height="1018" fill="#54007E"/>
<path d="M465.739 478.03C467.946 371.011 574.103 286.407 702.848 289.061C831.593 291.715 934.173 380.623 931.967 487.642C929.761 594.661 823.603 679.266 694.858 676.612C647.376 675.633 603.454 662.92 567.033 641.895C546.449 674.869 478.187 687.981 444 690.437C482.672 650.989 485.336 587.193 480.792 550.183C470.584 527.755 465.216 503.402 465.739 478.03Z" fill="white"/>
<path d="M482.889 310.921L436.289 263.844L442.566 257.631L489.166 304.707L482.889 310.921ZM472.038 264.133L468.043 259.34C469.395 256.463 469.272 253.317 467.354 249.666C464.81 251.412 461.516 250.908 459.549 248.548C457.398 245.967 457.656 242.377 460.385 240.103C462.819 238.075 466.371 237.989 469.383 241.603C475.528 248.978 475.971 258.356 472.038 264.133ZM515.236 283.903L491.852 240.888L499.106 236.945L502.269 242.764C503.006 236.682 506.568 231.577 512.641 228.275C519.472 224.561 526.574 224.962 531.955 229.03C532.049 221.767 535.75 215.712 542.835 211.861C552.535 206.588 562.429 209.513 567.794 219.381L576.735 235.828C578.156 238.443 580.676 239.258 583.375 237.791L584.134 237.378L587.94 244.379L585.747 245.571C579.252 249.102 573.746 247.615 570.307 241.289L561.641 225.349C557.927 218.517 551.111 216.431 544.364 220.099C537.279 223.951 535.032 231.073 538.791 237.989L552.684 263.545L545.431 267.488L531.446 241.763C527.732 234.932 520.916 232.846 514.169 236.514C507.084 240.365 504.837 247.487 508.597 254.404L522.49 279.959L515.236 283.903ZM633.435 233.622C622.238 235.884 613.7 231.438 611.913 222.593L620.194 220.92C621.107 225.437 625.836 227.517 632.047 226.263C637.881 225.084 641.188 221.576 640.408 217.718C638.317 207.367 611.849 218.394 608.427 201.457C606.659 192.705 612.463 185.559 622.908 183.449C633.635 181.282 641.739 185.521 643.469 194.084L635.188 195.757C634.352 191.616 630.037 189.648 624.297 190.807C618.839 191.91 615.777 195.173 616.518 198.843C618.552 208.911 645.039 197.978 648.518 215.198C650.305 224.044 644.351 231.417 633.435 233.622ZM683.423 228.182C669.417 228.714 658.542 218.079 657.988 203.497C657.434 188.916 667.471 177.487 681.477 176.955C689.631 176.645 696.492 180.227 700.85 186.21L700.515 177.384L708.765 177.071L710.135 213.141C710.248 216.115 712.24 217.96 715.214 217.847L716.173 217.811L716.475 225.773L713.885 225.872C707.266 226.123 703.213 223.107 702.223 217.284C698.335 223.676 691.673 227.868 683.423 228.182ZM684.656 220.161C694.632 219.782 701.827 211.919 701.444 201.847C701.062 191.774 693.291 184.48 683.315 184.858C673.242 185.241 666.047 193.104 666.43 203.177C666.812 213.249 674.583 220.544 684.656 220.161ZM722.997 245.305L724.044 237.406L725.091 237.545C731.087 238.34 734.828 236.415 738.428 231.179L740.355 228.336L725.614 177.379L734.941 178.616L746.172 219.52L767.678 182.958L776.814 184.17L744.985 236.503C740.366 244.316 734.512 246.832 724.044 245.444L722.997 245.305ZM796.898 179.104C793.824 178.336 792.054 175.519 792.822 172.445C793.567 169.465 796.477 167.718 799.551 168.486C802.531 169.231 804.278 172.141 803.533 175.122C802.765 178.195 799.878 179.849 796.898 179.104ZM778.765 234.636L790.635 187.137L798.645 189.139L786.775 236.638L778.765 234.636ZM800.226 240.909L817.983 195.283L825.677 198.277L822.996 205.166C828.559 201.459 835.399 200.825 842.556 203.61C853.649 207.928 858.22 218.153 853.868 229.336L847.565 245.529C846.486 248.303 847.579 250.788 850.352 251.868L851.158 252.181L848.268 259.606L845.942 258.701C839.053 256.02 836.634 250.855 839.245 244.145L845.234 228.758C848.402 220.616 845.302 213.229 837.161 210.061C828.752 206.788 821.081 210.086 817.878 218.317L807.92 243.904L800.226 240.909ZM874.031 274.54C862.3 267.046 859.137 252.381 866.631 240.651C874.125 228.92 888.709 225.705 900.44 233.199C907.397 237.643 911.045 244.416 911.319 251.654L915.919 244.454L922.877 248.899L899.362 285.709C891.352 298.249 877.747 301.178 865.046 293.064C854.609 286.397 850.114 275.78 854.026 266.09L861.226 270.689C859.604 276.26 862.818 282.642 869.209 286.724C877.704 292.151 886.72 290.164 892.249 281.507L895.35 276.653C888.667 279.447 880.989 278.984 874.031 274.54ZM879.747 268.623C888.161 273.997 898.296 272.042 903.361 264.113C908.374 256.266 905.939 246.167 897.525 240.792C889.031 235.366 878.844 237.403 873.831 245.25C868.767 253.178 871.253 263.196 879.747 268.623Z" fill="white"/>
<path d="M725.483 507.4C730.883 495.6 742.483 503.8 737.883 514C729.483 532.8 720.283 543.2 702.883 543.2C679.483 543.2 671.483 512.6 672.483 493.6C649.083 497.2 644.083 497.2 640.083 497.8C640.083 499.6 640.483 501.4 640.283 505.4C639.683 524.6 632.483 546.2 619.283 554.4C615.483 556.2 612.083 557 608.883 557C597.283 557 590.483 545 589.483 532.8C588.483 518.8 594.883 502.8 602.883 495.8C609.083 490.2 617.083 488 624.683 485C624.883 483.6 625.083 478.8 625.083 473.2C625.083 463.2 624.683 450 624.083 446.4C617.883 449.2 611.483 450.4 605.683 450.4C594.083 450.4 585.283 445.6 585.283 440.6C585.283 438.4 586.883 436.2 590.083 434.4C591.083 434.2 591.883 434 592.683 434C596.883 434 601.083 436.2 605.683 436C611.083 436.2 615.683 434.8 620.083 431.8C624.683 427.8 628.283 426 630.883 426C639.083 426 639.883 441.4 639.883 456.2V469.4C639.883 475 640.083 479.6 640.283 482C651.883 480.4 662.683 479 673.483 476.6C676.883 458.4 684.683 425 705.483 425C709.083 425 713.083 426 717.483 428.4C726.283 433.4 729.883 439.4 729.883 445.8C729.883 463 703.883 482.2 689.283 489C688.483 510.2 693.883 526.6 704.083 526.6C714.483 526.6 720.283 518.8 725.483 507.4ZM691.283 469C697.683 465.4 713.483 453.8 713.483 444.4C713.483 442 711.283 439.6 708.283 439.6C699.483 439.6 693.283 460.6 691.283 469ZM609.683 541.6C618.683 541.6 624.683 516.2 624.683 505.4V500.8C609.683 504.6 604.283 518.2 604.283 529C604.283 534.4 604.683 541.6 609.683 541.6ZM753.055 451.6C747.855 451.6 741.455 446.2 741.655 437.2C742.055 430.4 746.455 427.2 751.055 427.2C756.055 427.2 761.055 431 761.055 437.8C761.055 438.6 760.855 439.4 760.855 440.2C761.255 448 757.655 451.6 753.055 451.6ZM768.455 554C747.255 554 741.455 537 742.855 499.4C741.655 503.8 740.455 507.4 737.655 514C733.055 525.4 720.255 520.2 725.255 507.4C733.455 487.4 735.255 478 739.855 469.2C742.255 464.6 747.055 460.6 753.655 463.4C758.655 465.4 760.055 469.8 759.655 475.4C757.255 519.8 756.055 539 769.055 539C773.455 539 777.255 534.4 780.855 528.8C787.655 517.8 800.255 526.2 792.655 537C784.655 549 777.455 554 768.455 554Z" fill="#54007E"/>
<path d="M614.147 777.595C605.793 775.8 601.271 769.428 602.945 761.638L608.873 734.043L600.145 732.168L601.717 724.847L607.349 726.057C609.602 726.541 611.084 725.583 611.588 723.236L613.665 713.569L621.361 715.223L618.518 728.457L634.286 731.844L632.713 739.165L616.945 735.778L611.198 762.527C610.371 766.375 612.455 769.474 616.303 770.301C620.245 771.148 623.437 769.084 624.345 764.861L631.572 766.414C629.717 775.049 622.875 779.47 614.147 777.595ZM658.423 784.897C643.619 783.397 633.558 771.28 635.03 756.762C636.502 742.245 648.79 732.394 663.594 733.895C678.303 735.386 688.364 747.503 686.892 762.02C685.42 776.538 673.132 786.389 658.423 784.897ZM659.227 776.97C669.16 777.977 677.375 771.187 678.392 761.158C679.408 751.13 672.723 742.829 662.79 741.822C652.762 740.805 644.547 747.596 643.53 757.624C642.514 767.653 649.199 775.953 659.227 776.97ZM712.967 786.794L732.864 718.095L743.27 717L777.03 780.054L767.387 781.068L759.313 765.797L727.043 769.193L722.324 785.81L712.967 786.794ZM729.435 760.736L755.213 758.024L738.928 727.11L729.435 760.736ZM785.616 778.22L770.9 713.636L779.511 711.674L794.227 776.258L785.616 778.22ZM804.444 754.383L794.831 724.494L790.12 708.869L798.484 706.347L803.195 721.972L811.797 752.167L804.444 754.383ZM813.663 771.658C810.354 772.655 807.124 770.922 806.154 767.705C805.184 764.488 806.918 761.258 810.227 760.26C813.444 759.291 816.673 761.024 817.643 764.241C818.613 767.458 816.88 770.688 813.663 771.658Z" fill="white"/>
</svg>
