<svg width="1376" height="1018" viewBox="0 0 1376 1018" fill="none" xmlns="http://www.w3.org/2000/svg">
<rect width="1376" height="1018" fill="#54007E"/>
<path d="M316.396 489.471C320.09 310.302 497.815 168.658 713.356 173.102C928.898 177.545 1100.63 326.393 1096.94 505.562C1093.25 684.73 915.522 826.373 699.98 821.93C620.488 820.291 546.954 799.009 485.98 763.811C451.518 819.015 337.235 840.963 280 845.074C344.741 779.034 349.205 672.235 341.599 610.272C324.507 572.722 315.521 531.949 316.396 489.471Z" fill="white"/>
<path d="M693.458 593.75C677.958 593.75 666.708 582.75 666.708 566C666.708 551.5 672.208 538.25 672.208 522.75C672.208 515.75 670.708 511 663.458 511C647.708 511 627.208 537 623.458 542.75C620.458 555 618.958 563.5 617.708 574.25C616.458 586 612.708 590.75 607.708 590.75C604.208 590.75 598.208 589.5 598.208 580.75C598.208 561.75 604.708 536.5 612.458 507.25C612.958 505 613.708 502.75 614.208 500.25C611.708 501.25 609.458 502 606.958 502.75C591.958 507.5 586.458 490 599.208 487C607.208 485 613.958 482.75 619.958 480.5C633.458 434.25 650.208 397.75 677.208 397.75C690.708 397.75 697.458 408.75 697.458 421.75C697.458 447.75 670.458 472.5 635.458 493.5C632.708 500 631.958 505 629.708 513C646.208 497.5 655.708 493.75 665.458 493.75C682.958 493.75 690.208 508.75 690.208 523C690.208 540.25 685.458 555.75 685.458 567.25C685.458 573.5 690.458 575.75 694.458 575.75C709.958 575.75 731.458 546.25 740.208 532.5C743.458 527.5 746.958 525.75 749.958 525.75C758.958 525.75 758.458 537 755.708 540.75C747.458 551.75 741.458 561.5 729.708 573.75C716.458 587.5 703.458 593.75 693.458 593.75ZM640.458 470.25C660.708 456.25 680.208 436 680.708 423.25C680.958 416.75 677.208 415.25 674.958 415.25C662.458 415.25 646.958 445.25 640.458 470.25ZM787.429 466C779.929 466 776.679 461 776.679 455.25C776.679 449 782.929 438.75 790.429 438.75C794.929 438.75 797.179 442 799.429 445.5C800.679 447 801.179 449.25 801.429 451.75C801.929 456.75 794.679 467.25 787.429 466ZM781.679 571.5C786.429 571.5 793.429 567.25 801.679 559.25C810.929 550 820.929 564.5 812.929 571.75C801.429 582.5 790.929 589 779.929 589C765.929 589 752.679 580.5 752.679 561.25C752.679 556.25 753.679 548.5 756.179 539C755.679 539.5 755.429 540.25 754.929 540.75C745.929 554.75 731.929 543 740.679 531.25C758.179 507.75 762.179 500.75 766.679 493.5C774.679 480.5 792.679 486 786.929 501.5C778.429 522.5 771.179 545.75 770.429 557.25C769.679 567 775.179 571.5 781.679 571.5Z" fill="#54007E"/>
<path d="M454.392 432.488L399.436 395.508L404.367 388.18L459.323 425.161L454.392 432.488ZM434.723 388.578L429.887 384.635C430.665 381.554 429.944 378.489 427.365 375.271C425.2 377.47 421.871 377.604 419.49 375.663C416.885 373.54 416.454 369.968 418.698 367.215C420.7 364.759 424.17 363.997 427.816 366.969C435.257 373.035 437.482 382.157 434.723 388.578ZM480.951 399.799L450.211 361.692L456.636 356.509L460.795 361.664C460.426 355.549 463.011 349.886 468.391 345.546C474.444 340.664 481.502 339.781 487.526 342.815C486.312 335.653 488.864 329.031 495.141 323.968C503.733 317.036 513.993 318.134 521.045 326.876L532.799 341.447C534.667 343.763 537.292 344.112 539.683 342.183L540.356 341.641L545.359 347.843L543.416 349.41C537.663 354.051 531.978 353.579 527.458 347.975L516.066 333.853C511.184 327.801 504.104 326.975 498.126 331.797C491.85 336.86 490.92 344.27 495.863 350.397L514.126 373.037L507.7 378.221L489.316 355.432C484.434 349.379 477.354 348.553 471.377 353.375C465.1 358.438 464.171 365.849 469.113 371.976L487.376 394.616L480.951 399.799ZM588.191 329.123C577.583 333.364 568.385 330.527 565.035 322.148L572.88 319.012C574.59 323.291 579.617 324.487 585.5 322.135C591.027 319.925 593.648 315.879 592.187 312.224C588.268 302.419 564.216 318.03 557.802 301.985C554.488 293.695 558.91 285.62 568.805 281.664C578.967 277.602 587.702 280.314 590.945 288.425L583.1 291.561C581.532 287.639 576.933 286.479 571.496 288.653C566.325 290.72 563.9 294.481 565.29 297.957C569.103 307.495 593.19 291.973 599.711 308.286C603.061 316.666 598.531 324.99 588.191 329.123ZM636.356 314.609C622.693 317.733 610.031 309.304 606.778 295.079C603.525 280.854 611.265 267.759 624.928 264.635C632.883 262.816 640.289 265.061 645.683 270.13L643.714 261.52L651.763 259.68L659.81 294.867C660.473 297.768 662.773 299.212 665.674 298.549L666.61 298.335L668.386 306.102L665.859 306.68C659.402 308.157 654.859 305.946 652.804 300.408C650.171 307.412 644.404 312.768 636.356 314.609ZM636.077 306.499C645.81 304.273 651.419 295.211 649.172 285.384C646.925 275.558 637.934 269.834 628.202 272.06C618.375 274.307 612.766 283.369 615.014 293.196C617.261 303.022 626.251 308.746 636.077 306.499ZM678.48 324.056L678.02 316.102L679.075 316.041C685.113 315.692 688.424 313.097 690.973 307.276L692.329 304.121L668.251 256.854L677.644 256.312L696.381 294.367L710.613 254.407L719.813 253.876L698.416 311.269C695.351 319.812 690.077 323.386 679.534 323.995L678.48 324.056ZM738.633 245.128C735.47 244.95 733.203 242.515 733.381 239.352C733.553 236.285 736.084 234.024 739.247 234.201C742.315 234.374 744.576 236.905 744.404 239.972C744.226 243.135 741.7 245.301 738.633 245.128ZM731.241 303.077L733.989 254.194L742.232 254.657L739.484 303.54L731.241 303.077ZM753.494 305.231L762.511 257.108L770.625 258.629L769.264 265.894C774.046 261.223 780.651 259.335 788.199 260.75C799.9 262.942 806.282 272.147 804.072 283.941L800.872 301.02C800.324 303.945 801.857 306.186 804.782 306.734L805.632 306.893L804.164 314.725L801.711 314.265C794.445 312.904 791.113 308.275 792.439 301.198L795.48 284.969C797.089 276.382 792.677 269.695 784.09 268.086C775.22 266.424 768.292 271.084 766.665 279.765L761.609 306.751L753.494 305.231ZM832.076 325.072C819.248 319.667 813.653 305.747 819.057 292.919C824.462 280.091 838.293 274.459 851.121 279.863C858.73 283.069 863.469 289.128 864.962 296.216L868.28 288.342L875.888 291.547L858.93 331.801C853.153 345.514 840.239 350.699 826.349 344.847C814.937 340.04 808.713 330.334 810.931 320.122L818.805 323.439C818.147 329.204 822.393 334.951 829.382 337.896C838.672 341.809 847.222 338.327 851.21 328.861L853.446 323.553C847.331 327.435 839.685 328.277 832.076 325.072ZM836.711 318.274C845.912 322.15 855.57 318.51 859.223 309.84C862.838 301.258 858.733 291.716 849.532 287.84C840.242 283.927 830.547 287.655 826.931 296.236C823.279 304.906 827.422 314.36 836.711 318.274Z" fill="#54007E"/>
<path d="M734.334 757.15C725.821 757.881 719.63 753.114 718.948 745.175L716.532 717.055L707.636 717.819L706.995 710.359L712.734 709.865C715.03 709.668 716.166 708.318 715.961 705.927L715.114 696.075L722.957 695.401L724.116 708.887L740.185 707.506L740.826 714.967L724.757 716.348L727.1 743.607C727.437 747.529 730.337 749.881 734.258 749.544C738.276 749.199 740.724 746.291 740.354 741.987L747.719 741.354C748.475 750.153 743.229 756.385 734.334 757.15ZM778.807 751.159C764.213 754.061 751.043 745.424 748.197 731.113C745.35 716.801 754.213 703.782 768.807 700.879C783.307 697.996 796.477 706.632 799.324 720.944C802.17 735.256 793.307 748.275 778.807 751.159ZM777.253 743.344C787.045 741.396 792.91 732.497 790.944 722.611C788.977 712.724 780.154 706.747 770.362 708.694C760.475 710.661 754.61 719.56 756.577 729.446C758.543 739.332 767.367 745.31 777.253 743.344ZM831.513 736.991L830.408 665.477L840.037 661.381L890.789 711.776L881.867 715.571L869.672 703.336L839.814 716.038L840.171 733.308L831.513 736.991ZM839.623 707.251L863.475 697.105L838.847 672.319L839.623 707.251ZM898.461 707.507L865.468 650.069L873.126 645.67L906.12 703.108L898.461 707.507ZM909.479 679.2L891.53 653.439L882.448 639.879L889.706 635.018L898.788 648.577L915.86 674.926L909.479 679.2ZM923.354 693.015C920.483 694.938 916.887 694.227 915.017 691.436C913.147 688.644 913.858 685.048 916.729 683.125C919.521 681.255 923.117 681.966 924.987 684.757C926.857 687.549 926.146 691.145 923.354 693.015Z" fill="#54007E"/>
</svg>
