<svg width="129" height="143" viewBox="0 0 129 143" fill="none" xmlns="http://www.w3.org/2000/svg">
<path d="M80.3644 63.1801C104.659 60.613 126.084 74.9031 128.218 95.0981C129.119 103.623 126.438 111.837 121.212 118.677C120.951 126.053 122.384 136.045 128.995 142.623C121.785 142.117 107.118 139.338 103.557 132.246C98.8392 134.314 93.6306 135.729 88.0919 136.314C63.7971 138.881 42.3724 124.59 40.2384 104.395C38.1046 84.1998 56.0695 65.7473 80.3644 63.1801Z" fill="#54007E"/>
<path d="M52.6152 0.0120478C78.7846 0.55153 99.6359 18.624 99.1875 40.3773C98.7389 62.1304 77.1605 79.3279 50.9912 78.7884C41.3392 78.5894 32.412 76.0029 25.0088 71.7288C20.8263 78.4329 6.9498 81.0987 0 81.598C7.86416 73.576 8.40092 60.6008 7.47559 53.0794C5.40344 48.5233 4.31271 43.5767 4.41895 38.4232C4.86749 16.67 26.4459 -0.527426 52.6152 0.0120478Z" fill="#9217B5"/>
<path d="M65.1742 25.3449C62.6319 25.657 60.4048 23.967 60.0926 21.4247C59.7805 18.8824 61.5326 16.7037 64.0749 16.3916C66.6172 16.0794 68.8443 17.7695 69.1564 20.3118C69.4686 22.8541 67.7165 25.0327 65.1742 25.3449ZM65.5313 57.9514L62.0704 29.7652L69.2552 28.883L72.716 57.0693L65.5313 57.9514Z" fill="white"/>
<path d="M31.3117 62.1529L26.4258 22.3605L33.6105 21.4783L35.4427 36.4004C37.3345 33.5315 40.2598 31.7698 43.9074 31.3219C50.5395 30.5076 55.4349 34.2823 56.2492 40.9144L57.301 49.4808C57.4842 50.973 58.4771 51.7487 59.9693 51.5655L60.5773 51.4908L61.4323 58.4545L59.3874 58.7056C54.0265 59.3638 50.9374 57.0503 50.3063 51.9104L49.3495 44.1178C48.8812 40.3043 46.1441 38.1159 42.4412 38.5706C38.462 39.0592 36.1213 41.9272 36.5963 45.7959L38.4964 61.2707L31.3117 62.1529Z" fill="white"/>
<path d="M101.507 86.4165C98.9645 86.1044 97.2124 83.9257 97.5246 81.3834C97.8367 78.8411 100.064 77.1511 102.606 77.4632C105.148 77.7754 106.901 79.954 106.588 82.4963C106.276 85.0386 104.049 86.7287 101.507 86.4165ZM93.965 118.141L97.4258 89.9547L104.611 90.8369L101.15 119.023L93.965 118.141Z" fill="white"/>
<path d="M70.1495 115.89C62.3016 114.926 57.1684 107.845 58.1999 99.4439C59.2313 91.0433 65.9253 85.4137 73.7732 86.3773C77.5314 86.8387 80.4984 88.7177 82.459 91.483L82.8662 88.1669L90.0509 89.0491L87.7369 107.895C87.5537 109.387 88.2741 110.373 89.8216 110.564L90.3743 110.631L89.5192 117.595L87.4743 117.344C83.6056 116.869 81.2883 115.182 80.5154 112.338C77.8898 114.989 74.2393 116.392 70.1495 115.89ZM72.3863 109.096C76.8629 109.646 80.5929 106.681 81.1357 102.26C81.6786 97.8387 78.7765 94.0602 74.2999 93.5106C69.8785 92.9677 66.1485 95.9318 65.6057 100.353C65.0628 104.775 67.9649 108.553 72.3863 109.096Z" fill="white"/>
</svg>
