<?xml version="1.0" encoding="UTF-8"?><svg id="a" xmlns="http://www.w3.org/2000/svg" width="4000" height="2000" viewBox="0 0 4000 2000"><defs><style>.b{fill:#fff;}.c{fill:#179ed3;}.d{fill:#1a1542;}</style></defs><rect class="b" x="282" y="634.03" width="983.08" height="728.97"/><path class="c" d="M1490.64,956.09c-10.72-225.57-88.2-479.57-285.61-597.62-235.63-143.64-544.33,1.52-764.73,122.58l-.87.5C243.46,599.31,23.76,753.32,22.55,995.16c-7.56,202.46,128.8,390.34,291.57,505.24,230.18,158.45,549.18,274.3,816.3,145.69,258.34-119.85,374.09-413.27,360.22-690Z"/><polygon class="b" points="594.62 1198.8 366.1 1198.8 366.1 836.57 441.46 836.57 441.46 1133.16 594.62 1133.16 594.62 1198.8"/><polygon class="b" points="856.69 902.21 766.26 902.21 766.26 1198.8 690.89 1198.8 690.89 902.21 599 902.21 599 836.57 856.69 836.57 856.69 902.21"/><path class="b" d="M980.43,1079.68c8.91,17.83,21.46,31.77,37.68,41.81,16.21,10.05,35.01,15.07,56.41,15.07s40.75-5.75,56.15-17.26c15.39-11.5,26.18-26.01,32.34-43.51l66.61,32.09c-6.17,17.83-16.54,34.03-31.11,48.62-14.59,14.59-32.34,26.26-53.24,35.01-20.91,8.75-44.49,13.13-70.74,13.13s-50.01-4.7-72.21-14.1c-22.21-9.4-41.57-22.53-58.1-39.39-16.54-16.85-29.42-36.62-38.65-59.32-9.24-22.68-13.86-47.48-13.86-74.39s4.53-51.78,13.61-74.64c9.07-22.85,21.88-42.62,38.41-59.32,16.53-16.69,35.89-29.66,58.1-38.9,22.2-9.24,46.44-13.86,72.7-13.86s49.84,4.38,70.74,13.13c20.91,8.75,38.65,20.42,53.24,35.01,14.58,14.59,24.95,30.8,31.11,48.62l-66.61,32.09c-6.16-17.5-16.94-32.01-32.34-43.51-15.4-11.5-34.12-17.26-56.15-17.26s-40.2,5.03-56.41,15.07c-16.21,10.05-28.76,23.91-37.68,41.57-8.93,17.67-13.37,38.34-13.37,61.99s4.45,44.41,13.37,62.24Z"/><path class="d" d="M1721.4,681.26v-300.77h55.3v252.32h128.79v48.44h-184.09Z"/><path class="d" d="M2040.74,686.1c-22.61,0-42.46-5.11-59.55-15.34-17.09-10.23-30.35-24.09-39.77-41.58-9.43-17.49-14.13-36.87-14.13-58.14s4.85-41.65,14.53-58.74c9.69-17.09,22.75-30.61,39.16-40.57,16.41-9.96,34.99-14.94,55.71-14.94,17.22,0,32.36,2.83,45.42,8.48,13.05,5.65,24.15,13.46,33.31,23.42,9.15,9.96,16.15,21.33,20.99,34.11,4.85,12.79,7.27,26.58,7.27,41.38,0,4.04-.2,8.01-.6,11.91-.41,3.91-1.15,7.47-2.22,10.7h-169.56v-40.78h139.68l-25.43,18.97c2.69-12.38,2.22-23.42-1.41-33.1-3.63-9.69-9.56-17.36-17.77-23.01-8.21-5.65-18.11-8.48-29.67-8.48s-20.86,2.83-29.47,8.48c-8.61,5.65-15.14,13.73-19.58,24.22s-6.13,23.28-5.05,38.35c-1.08,13.46.74,25.37,5.45,35.73,4.7,10.37,11.71,18.37,20.99,24.02,9.29,5.65,19.98,8.48,32.09,8.48s22.41-2.56,30.89-7.67c8.48-5.11,15.14-11.97,19.99-20.59l42.79,20.99c-4.31,10.5-11.04,19.78-20.19,27.86-9.15,8.07-20.05,14.4-32.7,18.97-12.65,4.57-26.38,6.86-41.18,6.86Z"/><path class="d" d="M2249.46,686.1c-15.35,0-28.74-2.56-40.17-7.67-11.45-5.11-20.26-12.45-26.45-22-6.19-9.55-9.29-20.65-9.29-33.31s2.76-22.94,8.28-32.5c5.51-9.55,13.93-17.56,25.23-24.02,11.3-6.46,25.57-11.03,42.79-13.73l71.46-11.71v40.37l-61.36,10.9c-10.49,1.89-18.31,5.18-23.41,9.89-5.12,4.71-7.67,10.97-7.67,18.77s2.89,13.53,8.68,17.97c5.79,4.44,12.98,6.66,21.6,6.66,11.03,0,20.79-2.35,29.27-7.06,8.47-4.71,15-11.24,19.58-19.58,4.57-8.34,6.86-17.36,6.86-27.05v-56.92c0-9.42-3.63-17.29-10.9-23.62-7.27-6.32-16.95-9.49-29.07-9.49-11.31,0-21.33,3.1-30.08,9.28-8.75,6.2-15.14,14.13-19.17,23.82l-43.2-21c4.3-11.57,11.1-21.6,20.39-30.08,9.29-8.48,20.25-15.14,32.91-19.99,12.65-4.84,26.37-7.27,41.18-7.27,18.03,0,33.91,3.3,47.64,9.89,13.73,6.6,24.43,15.81,32.09,27.65,7.67,11.85,11.51,25.44,11.51,40.78v146.14h-50.06v-37.55l11.3-.4c-5.65,9.15-12.45,16.96-20.39,23.42-7.94,6.46-16.83,11.3-26.65,14.53-9.83,3.23-20.79,4.84-32.9,4.84Z"/><path class="d" d="M2416.6,681.26v-219.62h50.06v48.85l-4.04-7.27c5.11-16.41,13.13-27.86,24.03-34.32,10.9-6.46,24.02-9.69,39.36-9.69h12.92v47.23h-18.97c-15.08,0-27.19,4.58-36.33,13.73-9.15,9.15-13.73,22.07-13.73,38.76v122.33h-53.29Z"/><path class="d" d="M2567.58,681.26v-219.62h50.06v43.2l-4.04-7.67c5.11-13.18,13.53-23.21,25.23-30.08,11.71-6.86,25.37-10.3,40.98-10.3s30.48,3.5,43,10.5c12.51,7,22.27,16.76,29.27,29.27,6.99,12.51,10.49,26.99,10.49,43.4v141.3h-52.88v-128.78c0-9.69-1.89-18.03-5.65-25.03-3.77-6.99-9.02-12.38-15.75-16.15-6.73-3.76-14.4-5.65-23.01-5.65s-16.29,1.89-23.01,5.65c-6.73,3.77-11.98,9.16-15.75,16.15-3.77,7-5.65,15.34-5.65,25.03v128.78h-53.29Z"/><path class="d" d="M2806.98,410.36v-3.23c0-14.72,11.93-26.65,26.65-26.65h0c14.72,0,26.65,11.93,26.65,26.65v3.23c0,14.72-11.93,26.65-26.65,26.65h0c-14.72,0-26.65-11.93-26.65-26.65ZM2806.98,681.26v-219.62h53.29v219.62h-53.29Z"/><path class="d" d="M2908.72,681.26v-219.62h50.06v43.2l-4.04-7.67c5.11-13.18,13.53-23.21,25.23-30.08,11.71-6.86,25.37-10.3,40.98-10.3s30.48,3.5,43,10.5c12.51,7,22.27,16.76,29.27,29.27,6.99,12.51,10.49,26.99,10.49,43.4v141.3h-52.88v-128.78c0-9.69-1.89-18.03-5.65-25.03-3.77-6.99-9.02-12.38-15.75-16.15-6.73-3.76-14.4-5.65-23.01-5.65s-16.29,1.89-23.01,5.65c-6.73,3.77-11.98,9.16-15.75,16.15-3.77,7-5.65,15.34-5.65,25.03v128.78h-53.29Z"/><path class="d" d="M3255.1,770.07c-16.42,0-31.63-2.69-45.62-8.07-14-5.39-26.04-12.86-36.13-22.41-10.09-9.56-17.43-20.79-22.01-33.71l49.25-18.57c3.23,10.22,9.62,18.5,19.18,24.83,9.55,6.32,21.19,9.49,34.92,9.49,10.77,0,20.25-2.02,28.47-6.06,8.21-4.04,14.67-9.89,19.38-17.56,4.71-7.67,7.07-16.89,7.07-27.65v-50.06l9.69,12.11c-7.54,13.19-17.56,23.15-30.08,29.88-12.51,6.73-26.99,10.09-43.4,10.09-20.19,0-38.35-4.7-54.5-14.13-16.15-9.42-28.87-22.34-38.15-38.76-9.29-16.42-13.93-34.85-13.93-55.31s4.65-39.16,13.93-55.31c9.28-16.15,21.86-28.87,37.75-38.15,15.88-9.29,33.91-13.93,54.1-13.93,16.41,0,30.81,3.43,43.2,10.3,12.37,6.86,22.74,16.75,31.09,29.67l-6.86,13.32v-48.44h50.06v208.72c0,19.11-4.64,36.2-13.93,51.27-9.29,15.07-21.94,26.91-37.95,35.53-16.02,8.61-34.52,12.92-55.51,12.92ZM3252.68,623.53c11.3,0,21.19-2.49,29.67-7.47,8.48-4.98,15.14-11.91,19.99-20.79,4.84-8.88,7.27-19.11,7.27-30.68s-2.49-21.4-7.47-30.28c-4.98-8.88-11.71-15.88-20.19-20.99-8.48-5.11-18.23-7.67-29.27-7.67s-20.99,2.56-29.88,7.67c-8.88,5.12-15.81,12.11-20.79,20.99-4.98,8.88-7.47,18.98-7.47,30.28s2.49,21.4,7.47,30.28c4.98,8.88,11.84,15.89,20.59,21,8.74,5.11,18.77,7.67,30.08,7.67Z"/><path class="d" d="M1775.09,1165.72v-252.32h-77.92v-48.44h209.93v48.44h-76.7v252.32h-55.31Z"/><path class="d" d="M2012.08,1170.56c-22.61,0-42.46-5.11-59.55-15.35-17.09-10.22-30.35-24.08-39.77-41.58-9.43-17.49-14.13-36.87-14.13-58.14s4.85-41.65,14.53-58.74c9.69-17.09,22.75-30.61,39.16-40.57,16.41-9.96,34.99-14.94,55.71-14.94,17.22,0,32.36,2.83,45.42,8.48,13.05,5.65,24.15,13.46,33.31,23.42,9.15,9.96,16.15,21.33,20.99,34.11,4.85,12.79,7.27,26.58,7.27,41.38,0,4.03-.2,8.01-.6,11.91-.41,3.91-1.15,7.47-2.22,10.7h-169.56v-40.78h139.68l-25.43,18.98c2.69-12.38,2.22-23.42-1.41-33.11-3.63-9.69-9.56-17.36-17.77-23.01-8.21-5.65-18.1-8.48-29.67-8.48s-20.86,2.83-29.47,8.48c-8.61,5.65-15.14,13.73-19.58,24.22-4.44,10.5-6.13,23.28-5.05,38.35-1.08,13.46.74,25.37,5.45,35.73,4.7,10.37,11.71,18.37,20.99,24.03,9.29,5.65,19.98,8.47,32.09,8.47s22.4-2.55,30.88-7.67c8.48-5.11,15.14-11.97,19.99-20.59l42.79,20.99c-4.31,10.5-11.04,19.79-20.19,27.86-9.15,8.07-20.05,14.4-32.7,18.97-12.65,4.57-26.38,6.87-41.18,6.87Z"/><path class="d" d="M2260.76,1170.56c-22.07,0-41.72-5.05-58.94-15.14-17.23-10.09-30.89-23.82-40.98-41.18-10.09-17.36-15.14-36.94-15.14-58.74s4.98-41.31,14.94-58.54c9.95-17.22,23.62-30.82,40.98-40.78,17.36-9.96,37.07-14.94,59.14-14.94,15.61,0,30.14,2.76,43.6,8.28,13.46,5.52,25.09,13.12,34.92,22.81,9.82,9.69,16.89,20.99,21.19,33.91l-46.42,20.59c-4.04-11.31-10.84-20.25-20.39-26.85-9.56-6.59-20.53-9.89-32.91-9.89-11.58,0-21.87,2.76-30.89,8.28-9.02,5.52-16.09,13.32-21.19,23.42-5.12,10.09-7.67,21.46-7.67,34.12s2.55,24.36,7.67,34.31c5.11,9.96,12.17,17.77,21.19,23.42,9.01,5.65,19.31,8.48,30.89,8.48,12.65,0,23.62-3.37,32.91-10.09,9.28-6.73,16.07-15.75,20.39-27.05l46.42,20.99c-4.31,12.39-11.3,23.49-20.99,33.31-9.69,9.83-21.27,17.5-34.72,23.01-13.46,5.51-28.13,8.28-44,8.28Z"/><path class="d" d="M2400.04,1165.72v-305.61h53.29v129.19l-7.27-7.67c5.11-13.18,13.53-23.21,25.23-30.08,11.71-6.86,25.37-10.3,40.98-10.3s30.48,3.5,43,10.5c12.51,7,22.27,16.76,29.27,29.27,6.99,12.51,10.49,26.99,10.49,43.4v141.3h-52.88v-128.78c0-9.69-1.89-18.03-5.65-25.03-3.77-6.99-8.95-12.38-15.55-16.15-6.6-3.76-14.33-5.65-23.21-5.65s-16.29,1.89-23.01,5.65c-6.73,3.77-11.98,9.16-15.75,16.15-3.77,7-5.65,15.34-5.65,25.03v128.78h-53.29Z"/><path class="d" d="M2639.44,1165.72v-219.62h50.06v43.2l-4.04-7.67c5.11-13.18,13.53-23.21,25.23-30.08,11.71-6.86,25.37-10.3,40.98-10.3s30.48,3.5,43,10.5c12.51,7,22.27,16.76,29.27,29.27,6.99,12.51,10.49,26.99,10.49,43.4v141.3h-52.88v-128.78c0-9.69-1.89-18.03-5.65-25.03-3.77-6.99-9.02-12.38-15.75-16.15-6.73-3.76-14.4-5.65-23.01-5.65s-16.29,1.89-23.01,5.65c-6.73,3.77-11.98,9.16-15.75,16.15-3.77,7-5.65,15.34-5.65,25.03v128.78h-53.29Z"/><path class="d" d="M2986.23,1170.56c-21.27,0-40.72-4.98-58.34-14.94-17.63-9.95-31.69-23.55-42.19-40.78-10.49-17.22-15.75-36.87-15.75-58.94s5.25-41.72,15.75-58.94c10.5-17.22,24.49-30.82,41.99-40.78,17.49-9.96,37.01-14.94,58.54-14.94s41.44,4.98,58.94,14.94c17.49,9.96,31.43,23.49,41.78,40.57,10.36,17.1,15.55,36.81,15.55,59.15s-5.25,41.72-15.75,58.94c-10.5,17.23-24.49,30.82-41.99,40.78-17.5,9.96-37.01,14.94-58.54,14.94ZM2986.23,1122.12c12.11,0,22.67-2.83,31.69-8.48,9.01-5.65,16.15-13.53,21.39-23.62,5.25-10.09,7.87-21.46,7.87-34.11s-2.63-23.95-7.87-33.91c-5.25-9.95-12.38-17.76-21.39-23.42-9.03-5.65-19.59-8.48-31.69-8.48s-22.35,2.83-31.49,8.48c-9.15,5.65-16.35,13.46-21.6,23.42-5.25,9.96-7.87,21.26-7.87,33.91s2.63,24.02,7.87,34.11c5.25,10.09,12.45,17.97,21.6,23.62,9.15,5.65,19.64,8.48,31.49,8.48Z"/><path class="d" d="M3142.06,1165.72v-305.61h53.29v305.61h-53.29Z"/><path class="d" d="M3351.19,1170.56c-21.27,0-40.72-4.98-58.34-14.94-17.63-9.95-31.69-23.55-42.19-40.78-10.49-17.22-15.75-36.87-15.75-58.94s5.25-41.72,15.75-58.94c10.5-17.22,24.49-30.82,41.99-40.78,17.49-9.96,37.01-14.94,58.54-14.94s41.44,4.98,58.94,14.94c17.49,9.96,31.43,23.49,41.78,40.57,10.36,17.1,15.55,36.81,15.55,59.15s-5.25,41.72-15.75,58.94c-10.5,17.23-24.49,30.82-41.99,40.78-17.5,9.96-37.01,14.94-58.54,14.94ZM3351.19,1122.12c12.11,0,22.67-2.83,31.69-8.48,9.01-5.65,16.15-13.53,21.39-23.62,5.25-10.09,7.87-21.46,7.87-34.11s-2.63-23.95-7.87-33.91c-5.25-9.95-12.38-17.76-21.39-23.42-9.03-5.65-19.59-8.48-31.69-8.48s-22.35,2.83-31.49,8.48c-9.15,5.65-16.35,13.46-21.6,23.42-5.25,9.96-7.87,21.26-7.87,33.91s2.63,24.02,7.87,34.11c5.25,10.09,12.45,17.97,21.6,23.62,9.15,5.65,19.64,8.48,31.49,8.48Z"/><path class="d" d="M3614,1254.53c-16.42,0-31.63-2.69-45.62-8.07-14-5.39-26.04-12.86-36.13-22.41-10.09-9.56-17.43-20.79-22.01-33.71l49.25-18.57c3.23,10.23,9.62,18.51,19.18,24.83,9.55,6.32,21.19,9.49,34.92,9.49,10.77,0,20.25-2.02,28.47-6.05,8.21-4.04,14.67-9.89,19.38-17.57,4.71-7.67,7.07-16.89,7.07-27.65v-50.06l9.69,12.11c-7.54,13.19-17.56,23.15-30.08,29.88-12.51,6.73-26.99,10.09-43.4,10.09-20.19,0-38.35-4.71-54.5-14.13-16.15-9.42-28.87-22.34-38.15-38.76-9.29-16.41-13.93-34.85-13.93-55.3s4.65-39.16,13.93-55.31c9.28-16.15,21.86-28.87,37.75-38.15,15.88-9.29,33.91-13.93,54.1-13.93,16.41,0,30.81,3.43,43.2,10.3,12.37,6.86,22.74,16.75,31.09,29.67l-6.86,13.32v-48.44h50.06v208.72c0,19.11-4.64,36.19-13.93,51.27-9.29,15.07-21.94,26.91-37.95,35.53-16.02,8.61-34.52,12.92-55.51,12.92ZM3611.58,1107.99c11.3,0,21.19-2.49,29.67-7.47,8.48-4.98,15.14-11.91,19.99-20.79,4.84-8.89,7.27-19.11,7.27-30.69s-2.49-21.4-7.47-30.28c-4.98-8.88-11.71-15.88-20.19-20.99-8.48-5.11-18.23-7.67-29.27-7.67s-20.99,2.56-29.88,7.67c-8.88,5.12-15.81,12.11-20.79,20.99-4.98,8.88-7.47,18.98-7.47,30.28s2.49,21.4,7.47,30.28c4.98,8.88,11.84,15.89,20.59,20.99,8.74,5.12,18.77,7.67,30.08,7.67Z"/><path class="d" d="M3796.88,1254.53c-5.92,0-11.71-.47-17.36-1.41-5.65-.95-10.77-2.62-15.34-5.05v-44c3.49.81,7.73,1.61,12.71,2.43,4.98.81,9.62,1.21,13.93,1.21,12.11,0,20.92-2.76,26.44-8.27,5.51-5.52,10.43-12.86,14.74-22.01l14.53-33.91-.81,44.41-95.68-241.83h56.92l67.02,178.44h-20.19l66.61-178.44h57.33l-95.68,241.83c-5.65,13.99-12.51,26.04-20.59,36.13-8.07,10.09-17.43,17.69-28.06,22.81-10.64,5.11-22.81,7.67-36.54,7.67Z"/><path class="d" d="M1863.1,1655.02c-21.53,0-41.45-3.91-59.75-11.71-18.31-7.8-34.18-18.7-47.64-32.7-13.46-13.99-24.02-30.41-31.69-49.25-7.67-18.84-11.51-39.43-11.51-61.77s3.77-43,11.31-61.97c7.53-18.97,18.1-35.39,31.69-49.25,13.59-13.86,29.47-24.63,47.64-32.3,18.17-7.67,38.15-11.51,59.95-11.51s40.84,3.63,57.94,10.9c17.09,7.27,31.55,16.89,43.4,28.87,11.84,11.98,20.32,25.1,25.43,39.36l-49.25,23.41c-5.65-15.34-15.21-27.92-28.67-37.75-13.46-9.82-29.74-14.73-48.85-14.73s-35.46,4.44-49.86,13.32c-14.4,8.88-25.57,21.13-33.51,36.74-7.95,15.61-11.91,33.91-11.91,54.9s3.97,39.36,11.91,55.11c7.93,15.74,19.11,28.05,33.51,36.94,14.39,8.88,31.02,13.32,49.86,13.32s35.39-4.91,48.85-14.73c13.45-9.82,23.01-22.27,28.67-37.35l49.25,23.01c-5.11,14.27-13.59,27.39-25.43,39.36-11.85,11.98-26.31,21.6-43.4,28.87-17.1,7.27-36.4,10.9-57.94,10.9Z"/><path class="d" d="M2129.96,1655.02c-22.61,0-42.46-5.11-59.55-15.35-17.09-10.22-30.35-24.08-39.77-41.58-9.42-17.49-14.13-36.87-14.13-58.14s4.85-41.65,14.53-58.74c9.69-17.09,22.75-30.61,39.16-40.58,16.41-9.95,34.99-14.93,55.71-14.93,17.22,0,32.36,2.83,45.42,8.47,13.05,5.65,24.15,13.47,33.31,23.42,9.15,9.96,16.15,21.33,20.99,34.11,4.85,12.79,7.27,26.58,7.27,41.38,0,4.03-.2,8.01-.6,11.91-.41,3.91-1.15,7.47-2.22,10.7h-169.57v-40.78h139.69l-25.43,18.98c2.69-12.38,2.22-23.42-1.41-33.11-3.63-9.69-9.56-17.36-17.77-23.01-8.21-5.65-18.11-8.48-29.67-8.48s-20.86,2.83-29.47,8.48c-8.61,5.65-15.14,13.73-19.58,24.22-4.44,10.5-6.13,23.29-5.05,38.36-1.08,13.46.74,25.37,5.45,35.73,4.7,10.37,11.71,18.37,20.99,24.03,9.29,5.65,19.98,8.47,32.09,8.47s22.41-2.55,30.89-7.67,15.14-11.97,19.99-20.59l42.79,20.99c-4.31,10.5-11.04,19.79-20.19,27.86-9.15,8.07-20.05,14.4-32.7,18.97-12.65,4.57-26.38,6.87-41.18,6.87Z"/><path class="d" d="M2272.47,1650.18v-219.62h50.06v43.2l-4.04-7.67c5.11-13.19,13.53-23.22,25.23-30.08,11.71-6.87,25.37-10.29,40.98-10.29s30.48,3.5,43,10.49c12.51,7.01,22.27,16.75,29.27,29.27,6.99,12.51,10.49,26.99,10.49,43.4v141.3h-52.88v-128.79c0-9.69-1.89-18.03-5.65-25.03-3.77-7-9.02-12.38-15.75-16.15-6.73-3.77-14.4-5.65-23.01-5.65s-16.29,1.89-23.01,5.65c-6.73,3.77-11.98,9.15-15.75,16.15-3.77,7-5.65,15.34-5.65,25.03v128.79h-53.29Z"/><path class="d" d="M2612.39,1652.6c-24.77,0-44-6.79-57.73-20.39-13.73-13.59-20.59-32.77-20.59-57.53v-96.89h-37.55v-47.24h4.04c10.76,0,19.04-2.83,24.83-8.47,5.79-5.65,8.68-13.86,8.68-24.63v-16.95h53.29v50.06h50.46v47.24h-50.46v94.06c0,7.27,1.27,13.47,3.84,18.57,2.55,5.12,6.59,9.02,12.11,11.71,5.51,2.69,12.58,4.04,21.2,4.04,1.88,0,4.1-.13,6.66-.41,2.55-.26,5.05-.53,7.47-.81v45.22c-3.77.53-8.07,1.07-12.91,1.61-4.85.54-9.29.81-13.33.81Z"/><path class="d" d="M2781.15,1655.02c-22.61,0-42.46-5.11-59.55-15.35-17.09-10.22-30.35-24.08-39.77-41.58-9.43-17.49-14.13-36.87-14.13-58.14s4.85-41.65,14.53-58.74c9.69-17.09,22.75-30.61,39.16-40.58,16.41-9.95,34.99-14.93,55.71-14.93,17.22,0,32.36,2.83,45.42,8.47,13.05,5.65,24.15,13.47,33.31,23.42,9.15,9.96,16.15,21.33,20.99,34.11,4.85,12.79,7.27,26.58,7.27,41.38,0,4.03-.2,8.01-.6,11.91-.41,3.91-1.15,7.47-2.22,10.7h-169.57v-40.78h139.69l-25.43,18.98c2.69-12.38,2.22-23.42-1.41-33.11-3.63-9.69-9.56-17.36-17.77-23.01-8.21-5.65-18.11-8.48-29.67-8.48s-20.86,2.83-29.47,8.48c-8.61,5.65-15.14,13.73-19.58,24.22-4.44,10.5-6.13,23.29-5.05,38.36-1.08,13.46.74,25.37,5.45,35.73,4.7,10.37,11.71,18.37,20.99,24.03,9.29,5.65,19.98,8.47,32.09,8.47s22.41-2.55,30.89-7.67,15.14-11.97,19.99-20.59l42.79,20.99c-4.31,10.5-11.04,19.79-20.19,27.86-9.15,8.07-20.05,14.4-32.7,18.97-12.65,4.57-26.38,6.87-41.18,6.87Z"/><path class="d" d="M2923.67,1650.18v-219.62h50.06v48.85l-4.04-7.27c5.11-16.41,13.13-27.86,24.03-34.32,10.9-6.46,24.02-9.69,39.36-9.69h12.92v47.24h-18.97c-15.08,0-27.19,4.58-36.33,13.73-9.15,9.15-13.73,22.07-13.73,38.75v122.33h-53.29Z"/></svg>