<?xml version="1.0" encoding="UTF-8"?><svg id="a" xmlns="http://www.w3.org/2000/svg" width="3000" height="3000" viewBox="0 0 3000 3000"><defs><style>.b{fill:#fff;}.c{fill:#1a1542;}</style></defs><rect class="b" x="557.97" y="928.13" width="2068.71" height="1285.95"/><path class="c" d="M878.24,484.96C494.55,715.5,64.39,1017.03,62.03,1490.52c-14.8,396.39,252.17,764.23,570.86,989.2,450.66,310.23,1075.23,537.04,1598.22,285.24,505.8-234.65,732.43-809.13,705.26-1350.93-20.98-441.63-172.68-938.95-559.18-1170.06-461.33-281.23-1065.72,2.97-1497.24,240.01l-1.71.98Z"/><path class="b" d="M716.45,1889.23v-709.2h147.56v580.68h299.87v128.51h-447.42Z"/><path class="b" d="M1352.35,1889.23v-580.68h-179.92v-128.51h504.53v128.51h-177.06v580.68h-147.56Z"/><path class="b" d="M2103.43,1900.65c-50.79,0-97.91-9.21-141.37-27.61-43.48-18.4-81.39-44.1-113.75-77.11-32.38-32.99-57.6-71.7-75.68-116.14-18.09-44.41-27.13-92.96-27.13-145.64s8.88-101.38,26.65-146.13c17.76-44.74,42.84-83.44,75.21-116.14,32.36-32.68,70.27-58.07,113.75-76.16,43.46-18.09,90.92-27.13,142.33-27.13s97.57,8.57,138.5,25.7c40.93,17.14,75.68,39.98,104.24,68.54,28.54,28.56,48.85,60.3,60.92,95.19l-130.41,62.82c-12.06-34.27-33.17-62.66-63.31-85.2-30.15-22.52-66.8-33.8-109.94-33.8s-78.71,9.85-110.44,29.51c-31.74,19.68-56.32,46.81-73.76,81.39-17.47,34.6-26.18,75.06-26.18,121.38s8.7,86.95,26.18,121.85c17.45,34.91,42.02,62.2,73.76,81.86,31.73,19.68,68.55,29.51,110.44,29.51s79.79-11.26,109.94-33.8c30.14-22.51,51.25-50.93,63.31-85.2l130.41,62.83c-12.07,34.91-32.38,66.63-60.92,95.19-28.56,28.56-63.31,51.41-104.24,68.54-40.93,17.14-87.1,25.71-138.5,25.71Z"/></svg>